<?xml version="1.0" standalone="no"?>
<!DOCTYPE svg PUBLIC "-//W3C//DTD SVG 20010904//EN"
 "http://www.w3.org/TR/2001/REC-SVG-20010904/DTD/svg10.dtd">
<svg version="1.0" xmlns="http://www.w3.org/2000/svg"
 width="1088.000000pt" height="1088.000000pt" viewBox="0 0 1088.000000 1088.000000"
 preserveAspectRatio="xMidYMid meet">
<metadata>
Created by potrace 1.14, written by Peter Selinger 2001-2017
</metadata>
<g transform="translate(0.000000,1088.000000) scale(0.100000,-0.100000)"
fill="#000000" stroke="none">
<path d="M5220 10864 c-25 -2 -106 -11 -180 -20 -964 -111 -1830 -615 -2424
-1411 -487 -653 -748 -1480 -723 -2293 18 -581 143 -1068 412 -1610 53 -107
550 -983 2810 -4949 176 -310 325 -563 330 -563 11 0 -59 -121 1719 2999 746
1310 1388 2446 1427 2523 218 441 338 847 391 1325 17 155 17 585 0 740 -115
1042 -624 1949 -1437 2561 -495 373 -1063 601 -1695 680 -111 14 -539 26 -630
18z m69 -1588 c15 -8 37 -28 47 -43 18 -27 19 -63 22 -913 2 -828 1 -887 -15
-919 -10 -19 -31 -44 -46 -55 -28 -21 -36 -21 -908 -24 -852 -2 -882 -2 -924
17 -81 36 -76 -33 -73 982 l3 901 37 34 38 34 895 0 c763 0 900 -2 924 -14z
m2237 -5 c67 -41 64 5 64 -963 0 -811 -1 -875 -18 -907 -9 -19 -30 -44 -45
-55 -28 -21 -36 -21 -905 -24 -976 -3 -940 -5 -982 62 -20 33 -20 45 -20 923
l0 890 23 34 c12 18 34 39 47 46 20 10 223 13 915 13 853 0 891 -1 921 -19z
m-3422 -2226 c88 -42 91 -178 6 -229 -24 -14 -68 -16 -328 -16 -295 0 -300 0
-333 23 -41 27 -59 60 -59 107 0 47 18 80 59 107 33 23 38 23 328 23 243 0
301 -3 327 -15z m1191 -5 c62 -38 65 -60 65 -443 0 -376 -1 -386 -63 -431 -27
-20 -43 -21 -313 -24 l-284 -3 0 -470 c0 -534 1 -526 -74 -560 -38 -17 -77
-19 -584 -19 -602 0 -593 -1 -633 64 -18 29 -19 61 -19 595 0 548 1 565 20
596 40 64 48 65 565 65 l464 0 3 289 3 289 25 27 c14 15 34 31 45 35 11 5 184
9 384 9 348 1 365 0 396 -19z m2224 6 c15 -8 37 -28 47 -43 18 -27 19 -60 19
-925 0 -891 0 -897 -21 -925 -11 -15 -36 -36 -55 -45 -32 -17 -96 -18 -907
-18 -968 0 -922 -3 -963 64 -18 30 -19 68 -19 919 0 980 -3 927 63 967 31 19
57 20 920 20 756 0 892 -2 916 -14z m-2228 -1052 c18 -9 38 -32 50 -57 17 -39
19 -70 19 -387 0 -380 -1 -389 -63 -434 -26 -19 -45 -21 -190 -24 -183 -3
-213 5 -254 67 -28 42 -29 86 -3 128 31 52 63 66 156 71 l84 5 0 263 c0 295 6
330 64 365 38 23 96 24 137 3z"/>
<path d="M3650 8310 l0 -720 720 0 720 0 0 720 0 720 -720 0 -720 0 0 -720z
m1107 443 c73 -34 73 -34 73 -441 0 -401 0 -404 -63 -442 -30 -19 -53 -20
-397 -20 -340 0 -367 1 -396 19 -63 39 -65 51 -62 450 3 346 4 361 24 388 45
62 54 63 437 63 305 0 353 -2 384 -17z"/>
<path d="M4180 8305 l0 -195 195 0 195 0 0 195 0 195 -195 0 -195 0 0 -195z"/>
<path d="M5880 8310 l0 -720 720 0 720 0 0 720 0 720 -720 0 -720 0 0 -720z
m1105 446 c19 -8 44 -30 55 -48 20 -32 20 -46 18 -410 l-3 -378 -33 -32 -32
-33 -376 -3 c-365 -3 -376 -2 -409 18 -63 39 -66 61 -63 457 3 337 4 353 24
380 45 62 54 63 437 63 280 0 354 -3 382 -14z"/>
<path d="M6410 8305 l0 -195 195 0 195 0 0 195 0 195 -195 0 -195 0 0 -195z"/>
<path d="M4700 6605 l0 -195 195 0 195 0 0 195 0 195 -195 0 -195 0 0 -195z"/>
<path d="M3650 5750 l0 -390 395 0 395 0 0 390 0 390 -395 0 -395 0 0 -390z
m525 0 l0 -125 -132 -3 -133 -3 0 131 0 131 133 -3 132 -3 0 -125z"/>
<path d="M5880 6080 l0 -720 720 0 720 0 0 720 0 720 -720 0 -720 0 0 -720z
m1123 436 c57 -38 57 -42 57 -446 l0 -370 -34 -38 -34 -37 -373 -3 c-406 -3
-413 -2 -452 52 -22 31 -22 35 -22 403 0 360 1 372 21 400 46 63 52 64 449 61
334 -3 362 -4 388 -22z"/>
<path d="M6410 6075 l0 -195 195 0 195 0 0 195 0 195 -195 0 -195 0 0 -195z"/>
</g>
</svg>
