<?xml version="1.0" standalone="no"?>
<!DOCTYPE svg PUBLIC "-//W3C//DTD SVG 20010904//EN"
 "http://www.w3.org/TR/2001/REC-SVG-20010904/DTD/svg10.dtd">
<svg version="1.0" xmlns="http://www.w3.org/2000/svg"
 width="984.000000pt" height="984.000000pt" viewBox="0 0 984.000000 984.000000"
 preserveAspectRatio="xMidYMid meet">
<metadata>
Created by potrace 1.14, written by Peter Selinger 2001-2017
</metadata>
<g transform="translate(0.000000,984.000000) scale(0.100000,-0.100000)"
fill="#000000" stroke="none">
<path d="M230 9741 c-87 -27 -163 -91 -202 -170 l-23 -46 0 -2040 0 -2040 28
-57 c34 -69 91 -121 164 -148 53 -20 77 -20 1148 -20 l1093 0 -28 74 c-56 145
-107 329 -134 488 l-7 38 -827 2 -827 3 0 1660 0 1660 1690 0 1690 0 3 -142
c1 -79 5 -143 8 -143 3 0 64 18 136 40 122 38 307 79 421 95 l48 6 -3 267 -3
267 -31 55 c-37 66 -109 124 -178 145 -43 13 -314 15 -2095 14 -1125 0 -2057
-4 -2071 -8z"/>
<path d="M5440 9735 c-66 -21 -138 -81 -174 -145 l-31 -55 -3 -267 -3 -267 48
-6 c111 -15 298 -57 409 -91 66 -20 127 -39 136 -41 16 -5 18 8 20 138 l3 144
1690 0 1690 0 0 -1660 0 -1660 -827 -3 -827 -2 -6 -38 c-16 -97 -81 -338 -119
-442 l-43 -115 1093 -3 c1074 -2 1094 -2 1147 18 73 27 130 79 164 148 l28 57
0 2040 0 2040 -23 46 c-30 61 -81 113 -145 147 l-52 27 -2065 2 c-1756 1
-2072 0 -2110 -12z"/>
<path d="M1444 8526 c-100 -32 -183 -121 -204 -219 -8 -37 -10 -291 -8 -852 3
-789 3 -801 24 -846 30 -63 79 -116 138 -147 l51 -27 396 -3 396 -3 8 93 c9
116 39 308 65 409 11 43 20 82 20 88 0 8 -76 11 -245 11 l-245 0 2 453 3 452
469 2 469 2 65 83 c75 94 314 335 385 388 26 19 46 42 44 50 -1 8 -29 28 -61
45 l-60 30 -835 2 c-661 1 -845 -1 -877 -11z"/>
<path d="M6673 8526 c-52 -17 -113 -54 -113 -69 0 -7 22 -28 48 -47 70 -52
308 -293 384 -388 l65 -83 469 -2 469 -2 3 -452 2 -453 -246 0 -246 0 5 -22
c38 -172 69 -347 79 -451 l12 -128 396 3 395 3 51 27 c59 31 108 84 138 147
21 46 21 53 21 876 0 828 0 830 -21 876 -28 60 -87 119 -150 150 l-49 24 -835
2 c-667 1 -843 -1 -877 -11z"/>
<path d="M4667 8455 c-642 -81 -1202 -434 -1562 -983 -75 -116 -189 -346 -234
-476 -175 -500 -166 -1086 26 -1566 70 -175 119 -267 468 -879 177 -311 585
-1027 907 -1591 321 -564 598 -1049 614 -1077 16 -29 31 -53 34 -53 3 0 62
100 131 223 107 187 444 778 1604 2812 169 296 223 401 289 566 161 403 194
899 89 1344 -70 300 -226 622 -420 868 -85 108 -296 314 -403 393 -293 216
-606 350 -960 409 -132 22 -446 28 -583 10z m523 -681 c195 -32 437 -130 606
-243 365 -244 610 -624 685 -1062 29 -171 23 -432 -14 -589 -100 -419 -331
-757 -672 -983 -127 -84 -230 -133 -380 -182 -282 -93 -554 -107 -835 -45
-537 119 -974 508 -1154 1027 -67 196 -81 282 -81 518 0 236 14 323 81 518
201 577 716 987 1327 1056 107 13 318 5 437 -15z"/>
<path d="M194 4589 c-70 -27 -128 -79 -161 -147 -38 -78 -40 -183 -4 -256 31
-63 84 -116 147 -147 l49 -24 695 0 695 0 53 24 c65 29 134 104 156 168 39
114 12 229 -73 313 -95 94 -57 90 -835 89 -641 0 -673 -1 -722 -20z"/>
<path d="M2654 4589 c-67 -25 -123 -75 -159 -140 l-30 -54 -3 -647 -3 -648
-1117 -2 -1117 -3 -58 -29 c-39 -19 -71 -44 -98 -78 -74 -94 -70 -8 -67 -1419
l3 -1264 23 -46 c30 -61 81 -113 145 -147 l52 -27 1310 0 1310 0 57 28 c67 33
129 99 155 165 17 44 18 111 21 1132 l2 1085 435 3 c239 1 435 5 435 8 0 3
-75 138 -167 300 l-168 294 -268 2 -267 3 0 448 c0 247 2 452 5 457 3 4 -70
141 -162 304 -188 330 -171 313 -269 275z m-196 -2996 l-3 -908 -920 0 -920 0
-3 895 c-1 492 0 901 3 908 3 9 198 12 925 12 l920 0 -2 -907z"/>
<path d="M1230 1590 l0 -300 305 0 305 0 0 300 0 300 -305 0 -305 0 0 -300z"/>
<path d="M6920 4320 c-91 -160 -166 -295 -168 -300 -2 -6 428 -11 1235 -12
l1238 -3 0 -1660 0 -1660 -1690 0 -1690 0 -5 865 -5 865 -302 -530 -303 -530
0 -522 0 -521 33 -63 c22 -44 48 -75 82 -101 96 -74 -77 -68 2210 -66 l2060 3
52 27 c64 34 115 86 145 147 l23 46 0 2040 0 2040 -28 57 c-34 69 -91 121
-164 148 -53 20 -76 20 -1306 20 l-1252 0 -165 -290z"/>
<path d="M6653 3384 c-57 -21 -128 -86 -161 -148 l-27 -51 0 -840 0 -840 23
-42 c35 -66 79 -110 140 -140 l57 -28 850 0 850 0 50 25 c63 31 115 83 146
146 l24 49 0 830 c0 823 0 830 -21 876 -32 68 -82 119 -149 151 l-60 28 -840
-1 c-715 0 -846 -3 -882 -15z m1345 -1036 l-3 -453 -460 0 -460 0 -3 453 -2
452 465 0 465 0 -2 -452z"/>
<path d="M4086 2100 c-86 -92 -80 -43 -86 -770 l-5 -645 -200 -5 c-199 -5
-200 -5 -254 -35 -60 -33 -122 -104 -142 -162 -21 -61 -17 -160 10 -220 27
-61 93 -126 159 -156 46 -21 59 -22 432 -22 380 0 386 0 430 23 69 34 112 74
145 133 l30 54 3 530 2 530 -227 398 c-125 218 -232 397 -239 397 -6 0 -32
-23 -58 -50z"/>
</g>
</svg>
